<?xml version="1.0" encoding="UTF-8"?>
<svg id="Layer_1" xmlns="http://www.w3.org/2000/svg" version="1.1" viewBox="0 0 1080 1080">
  <!-- Generator: Adobe Illustrator 30.3.0, SVG Export Plug-In . SVG Version: 2.1.3 Build 182)  -->
  <defs>
    <style>
      .st0 {
        fill: #fff;
      }
    </style>
  </defs>
  <path class="st0" d="M864.74,442.23c50.39,17.43,102.46,30.63,155.26,39.33v-101.56h-273.37c-25.75,0-46.63,20.88-46.63,46.63h0s-9.65,0-9.65,0c0-7.91,1.64-15.43,4.59-22.27,3.33-7.69,5.05-15.98,5.06-24.36h0s-273.37,0-273.37,0c-25.75,0-46.63,20.88-46.63,46.63h0s-9.65,0-9.65,0c0-7.91,1.64-15.43,4.59-22.27,3.33-7.69,5.05-15.98,5.05-24.36h0s-142.37,0-142.37,0c20.51,52.57,45.79,103.39,75.4,151.56,5.47,8.87,2.68,20.54-6.23,26.01-3.08,1.89-6.49,2.79-9.86,2.79-6.37,0-12.57-3.2-16.15-9.02-33.37-54.25-61.44-111.8-83.67-171.35H60v320h136.87c-24.84-50.21-45.35-102.52-61.24-156.07-2.97-10.04,2.76-20.54,12.77-23.51,10.01-2.97,20.54,2.73,23.51,12.74,17.02,57.51,39.65,113.51,67.32,166.84h94.14c25.75,0,46.63-20.88,46.63-46.64h9.12c0,7.24-1.39,14.15-3.91,20.5-3.27,8.23-5.21,16.92-5.21,25.78v.36h273.37c25.75,0,46.63-20.88,46.63-46.64h9.2c0,7.27-1.4,14.22-3.95,20.6-3.3,8.26-5.25,17-5.25,25.9v.14h320v-180.16c-56.99-8.99-113.28-23.07-167.65-41.89-9.86-3.4-15.1-14.2-11.67-24.06,3.4-9.86,14.17-15.1,24.06-11.67ZM558.79,625.82c-3.11,7.1-10.07,11.35-17.34,11.35-2.53,0-5.09-.49-7.56-1.57-53.53-23.36-105.19-51.61-153.89-84.16-6.6-4.39-13.12-8.87-19.61-13.44-8.55-6.02-10.59-17.83-4.57-26.36,5.5-7.85,15.91-10.21,24.17-5.88.73.38,1.45.81,2.15,1.31,52.28,36.77,108.39,68.36,166.87,93.85,9.57,4.19,13.93,15.33,9.77,24.9ZM865.96,588.55c10.15,2.5,16.35,12.74,13.85,22.87-2.12,8.64-9.83,14.4-18.36,14.4-1.48,0-3-.17-4.51-.55-53.99-13.24-106.39-30.92-156.95-52.89-60.25-26.15-117.85-58.39-172.31-96.49-8.55-5.99-10.62-17.77-4.65-26.33,5.99-8.55,17.77-10.65,26.36-4.65,47.8,33.45,98.15,62.23,150.6,86.08,53.24,24.26,108.68,43.52,165.96,57.57Z"/>
</svg>